<svg width="21" height="20" viewBox="0 0 21 20" fill="none" xmlns="http://www.w3.org/2000/svg">
<g clip-path="url(#clip0_501_694)">
<path d="M1.25367 1.36083C-0.318001 2.99333 0.0036654 4.7275 0.0036654 9.99584C0.0036654 14.3708 -0.759668 18.7567 3.23533 19.7892C4.48283 20.11 15.5362 20.11 16.782 19.7875C18.4453 19.3583 19.7987 18.0092 19.9837 15.6567C20.0095 15.3283 20.0095 4.66917 19.9828 4.33417C19.7862 1.82833 18.2437 0.384165 16.2112 0.0916647C15.7453 0.0241647 15.652 0.00416466 13.262 -2.00421e-06C4.7845 0.00416466 2.92617 -0.373336 1.25367 1.36083Z" fill="url(#paint0_linear_501_694)"/>
<path d="M10.0027 2.61577C6.9769 2.61577 4.10357 2.3466 3.00607 5.16327C2.55274 6.3266 2.61857 7.83743 2.61857 10.0008C2.61857 11.8991 2.55774 13.6833 3.00607 14.8374C4.10107 17.6558 6.99774 17.3858 10.0011 17.3858C12.8986 17.3858 15.8861 17.6874 16.9969 14.8374C17.4511 13.6624 17.3844 12.1741 17.3844 10.0008C17.3844 7.11577 17.5436 5.25327 16.1444 3.85494C14.7277 2.43827 12.8119 2.61577 9.9994 2.61577H10.0027ZM9.34107 3.9466C15.6527 3.9366 16.4561 3.23494 16.0127 12.9824C15.8552 16.4299 13.2302 16.0516 10.0036 16.0516C4.12024 16.0516 3.95107 15.8833 3.95107 9.99743C3.95107 4.04327 4.41774 3.94994 9.34107 3.94494V3.9466ZM13.9444 5.17243C13.4552 5.17243 13.0586 5.5691 13.0586 6.05827C13.0586 6.54743 13.4552 6.9441 13.9444 6.9441C14.4336 6.9441 14.8302 6.54743 14.8302 6.05827C14.8302 5.5691 14.4336 5.17243 13.9444 5.17243ZM10.0027 6.20827C7.90857 6.20827 6.21107 7.9066 6.21107 10.0008C6.21107 12.0949 7.90857 13.7924 10.0027 13.7924C12.0969 13.7924 13.7936 12.0949 13.7936 10.0008C13.7936 7.9066 12.0969 6.20827 10.0027 6.20827ZM10.0027 7.5391C13.2569 7.5391 13.2611 12.4624 10.0027 12.4624C6.7494 12.4624 6.7444 7.5391 10.0027 7.5391Z" fill="white"/>
</g>
<defs>
<linearGradient id="paint0_linear_501_694" x1="1.29202" y1="18.7226" x2="19.8799" y2="2.63499" gradientUnits="userSpaceOnUse">
<stop stop-color="#FFDD55"/>
<stop offset="0.5" stop-color="#FF543E"/>
<stop offset="1" stop-color="#C837AB"/>
</linearGradient>
<clipPath id="clip0_501_694">
<rect width="20" height="20" fill="white" transform="translate(0.00390625)"/>
</clipPath>
</defs>
</svg>
