<svg width="21" height="20" viewBox="0 0 21 20" fill="none" xmlns="http://www.w3.org/2000/svg">
<rect x="0.00390625" width="20" height="20" rx="3.33333" fill="#22E388"/>
<path d="M14.8786 4.72925C13.5973 3.41675 11.8473 2.66675 9.97233 2.66675C6.15983 2.66675 3.03483 5.79175 3.03483 9.60425C3.03483 10.8542 3.37858 12.0417 3.97233 13.073L3.00358 16.6667L6.65983 15.7292C7.69108 16.2605 8.81608 16.573 9.97233 16.573C13.8161 16.573 17.0036 13.448 17.0036 9.6355C17.0036 7.7605 16.1911 6.04175 14.8786 4.72925ZM9.97233 15.3855C8.94108 15.3855 7.94108 15.1042 7.03483 14.573L6.84733 14.448L4.65983 15.0417L5.25358 12.9167L5.09733 12.698C4.53483 11.7605 4.22233 10.698 4.22233 9.60425C4.22233 6.448 6.81608 3.85425 10.0036 3.85425C11.5348 3.85425 12.9723 4.448 14.0661 5.54175C15.1598 6.6355 15.8161 8.073 15.8161 9.6355C15.8161 12.7917 13.1598 15.3855 9.97233 15.3855ZM13.1598 11.073C12.9723 10.9792 12.1286 10.573 11.9723 10.5105C11.8161 10.448 11.6911 10.4167 11.5661 10.6042C11.4723 10.7605 11.1286 11.1667 11.0348 11.2917C10.9098 11.3855 10.8161 11.4167 10.6598 11.323C9.62858 10.823 8.97233 10.4167 8.28483 9.2605C8.09733 8.948 8.47233 8.97925 8.78483 8.323C8.84733 8.198 8.81608 8.10425 8.78483 8.0105C8.75358 7.91675 8.37858 7.073 8.25358 6.72925C8.09733 6.3855 7.97233 6.41675 7.84733 6.41675C7.75358 6.41675 7.62858 6.41675 7.53483 6.41675C7.40983 6.41675 7.22233 6.448 7.06608 6.6355C6.90983 6.823 6.47233 7.22925 6.47233 8.073C6.47233 8.948 7.06608 9.7605 7.15983 9.8855C7.25358 9.97925 8.37858 11.7292 10.1286 12.4792C11.2223 12.9792 11.6598 13.0105 12.2223 12.9167C12.5348 12.8855 13.2223 12.5105 13.3786 12.1042C13.5348 11.698 13.5348 11.3542 13.4723 11.2917C13.4411 11.198 13.3161 11.1667 13.1598 11.073Z" fill="#F9F9F9"/>
</svg>
